# xmcd
#
# Track frame offsets:
#	150
#	15627
#	37445
#	60065
#	88582
#	111896
#	136872
#	149775
#	163481
#	179501
#
# Disc length: 2739 seconds
#
# Revision: 1
# Processed by: cddbd v1.5.1PL0 Copyright (c) Steve Scherf et al.
# Submitted via: audiograbber 1.83.01
#
DISCID=910ab10a
DTITLE=Tómas R. Einarsson - Havana
DYEAR=1900
DGENRE=
TTITLE0=Havana
TTITLE1=Dakíri
TTITLE2=Bros
TTITLE3=Kúbanskur dans
TTITLE4=Bassachachacha
TTITLE5=Tófan og hrafninn
TTITLE6=Hægt en bítandi
TTITLE7=Sérvólettinn krúsar
TTITLE8=Kóngablús
TTITLE9=Bóleró
EXTD=
EXTT0=
EXTT1=
EXTT2=
EXTT3=
EXTT4=
EXTT5=
EXTT6=
EXTT7=
EXTT8=
EXTT9=
PLAYORDER=
